<?xml version="1.0" encoding="UTF-8"?>
<svg id="_Слой_2" data-name="Слой 2" xmlns="http://www.w3.org/2000/svg" viewBox="0 0 492 492">
  <defs>
    <style>
      .cls-1 {
        fill: #fff;
        fill-rule: evenodd;
      }

      .cls-1, .cls-2 {
        stroke: #fff;
        stroke-miterlimit: 80;
      }

      .cls-2 {
        fill: none;
        stroke-width: 20px;
      }
    </style>
  </defs>
  <g id="_Слой_1-2" data-name="Слой 1">
    <circle class="cls-2" cx="246" cy="246" r="236"/>
    <path class="cls-1" d="M363.6,363.6h-3.06l-7.97-29.54c-1.01-3.74-3.63-6.84-7.14-8.46h0s-.02-.01-.02-.01l-.16-.07c-.15-.07-.39-.18-.7-.33-.63-.3-1.57-.76-2.76-1.37-2.38-1.21-5.73-2.97-9.55-5.17-7.78-4.48-16.91-10.44-23.82-16.87-15.73-14.65-21.92-33.03-23.98-48.9v-18.79h-.49c.06-.38.12-.77.17-1.15h14.15c7.22,0,13.07-5.85,13.07-13.07s-5.85-13.07-13.07-13.07h-15.3c13.32-10.78,21.84-27.26,21.84-45.73,0-32.47-26.33-58.8-58.8-58.8s-58.8,26.33-58.8,58.8c0,18.47,8.52,34.95,21.84,45.73h-15.31c-7.22,0-13.07,5.85-13.07,13.07s5.85,13.07,13.07,13.07h14.7c.35,4.78.47,10.88-.17,17.69-1.52,16.32-7.26,35.77-23.54,51.24-5.81,5.53-14.62,11.47-22.52,16.26-3.85,2.33-7.29,4.28-9.77,5.64-1.24.68-2.23,1.21-2.89,1.56l-.75.4-.18.09-.04.02h0c-3.04,1.56-5.35,4.25-6.43,7.49l-10.09,30.27h-3.65c-7.22,0-13.07,5.85-13.07,13.07s5.85,13.07,13.07,13.07h235.2c7.22,0,13.07-5.85,13.07-13.07s-5.85-13.07-13.07-13.07Z"/>
  </g>
</svg>